<mxfile host="app.diagrams.net" modified="2024-02-12T21:23:39.357Z" agent="Mozilla/5.0 (Windows NT 10.0; Win64; x64) AppleWebKit/537.36 (KHTML, like Gecko) Chrome/121.0.0.0 Safari/537.36 Edg/121.0.0.0" etag="kY1AYi3zeRMztfGRHbaR" version="23.1.3" type="device">
  <diagram name="Page-1" id="8zU2l6T-Sbavtctgjgfz">
    <mxGraphModel dx="2276" dy="1859" grid="1" gridSize="10" guides="1" tooltips="1" connect="1" arrows="1" fold="1" page="1" pageScale="1" pageWidth="850" pageHeight="1100" math="0" shadow="0">
      <root>
        <mxCell id="0" />
        <mxCell id="1" parent="0" />
        <mxCell id="NbxyFVA988whH3VRByX9-1" value="IFCElementAssembly" style="swimlane;fontStyle=0;childLayout=stackLayout;horizontal=1;startSize=30;horizontalStack=0;resizeParent=1;resizeParentMax=0;resizeLast=0;collapsible=1;marginBottom=0;whiteSpace=wrap;html=1;rotation=0;rounded=0;" parent="1" vertex="1">
          <mxGeometry x="310" y="-580" width="140" height="300" as="geometry">
            <mxRectangle x="320" y="120" width="90" height="30" as="alternateBounds" />
          </mxGeometry>
        </mxCell>
        <mxCell id="NbxyFVA988whH3VRByX9-2" value="BuildingStorey" style="text;align=left;verticalAlign=middle;spacingLeft=4;spacingRight=4;overflow=hidden;points=[[0,0.5],[1,0.5]];portConstraint=eastwest;rotatable=0;whiteSpace=wrap;html=1;rotation=0;fillColor=default;fontColor=#333333;strokeColor=#666666;rounded=0;" parent="NbxyFVA988whH3VRByX9-1" vertex="1">
          <mxGeometry y="30" width="140" height="30" as="geometry" />
        </mxCell>
        <mxCell id="NbxyFVA988whH3VRByX9-3" value="Geometry" style="text;align=left;verticalAlign=middle;spacingLeft=4;spacingRight=4;overflow=hidden;points=[[0,0.5],[1,0.5]];portConstraint=eastwest;rotatable=0;whiteSpace=wrap;html=1;rotation=0;fillColor=default;fontColor=#333333;strokeColor=#666666;rounded=0;" parent="NbxyFVA988whH3VRByX9-1" vertex="1">
          <mxGeometry y="60" width="140" height="30" as="geometry" />
        </mxCell>
        <mxCell id="bsFWMnZwvuXCQbmCdaHQ-5" value="Colours" style="text;align=left;verticalAlign=middle;spacingLeft=4;spacingRight=4;overflow=hidden;points=[[0,0.5],[1,0.5]];portConstraint=eastwest;rotatable=0;whiteSpace=wrap;html=1;rotation=0;fillColor=default;fontColor=#333333;strokeColor=#666666;rounded=0;" parent="NbxyFVA988whH3VRByX9-1" vertex="1">
          <mxGeometry y="90" width="140" height="30" as="geometry" />
        </mxCell>
        <mxCell id="bsFWMnZwvuXCQbmCdaHQ-6" value="IFCElementTypes" style="text;align=left;verticalAlign=middle;spacingLeft=4;spacingRight=4;overflow=hidden;points=[[0,0.5],[1,0.5]];portConstraint=eastwest;rotatable=0;whiteSpace=wrap;html=1;rotation=0;fillColor=default;fontColor=#333333;strokeColor=#666666;rounded=0;" parent="NbxyFVA988whH3VRByX9-1" vertex="1">
          <mxGeometry y="120" width="140" height="30" as="geometry" />
        </mxCell>
        <mxCell id="bsFWMnZwvuXCQbmCdaHQ-11" value="UDAKeys" style="text;align=left;verticalAlign=middle;spacingLeft=4;spacingRight=4;overflow=hidden;points=[[0,0.5],[1,0.5]];portConstraint=eastwest;rotatable=0;whiteSpace=wrap;html=1;rotation=0;fillColor=default;fontColor=#333333;strokeColor=#666666;rounded=0;" parent="NbxyFVA988whH3VRByX9-1" vertex="1">
          <mxGeometry y="150" width="140" height="30" as="geometry" />
        </mxCell>
        <mxCell id="bsFWMnZwvuXCQbmCdaHQ-12" value="UDAValues" style="text;align=left;verticalAlign=middle;spacingLeft=4;spacingRight=4;overflow=hidden;points=[[0,0.5],[1,0.5]];portConstraint=eastwest;rotatable=0;whiteSpace=wrap;html=1;rotation=0;fillColor=default;fontColor=#333333;strokeColor=#666666;rounded=0;" parent="NbxyFVA988whH3VRByX9-1" vertex="1">
          <mxGeometry y="180" width="140" height="30" as="geometry" />
        </mxCell>
        <mxCell id="bsFWMnZwvuXCQbmCdaHQ-13" value="UDAPSets" style="text;align=left;verticalAlign=middle;spacingLeft=4;spacingRight=4;overflow=hidden;points=[[0,0.5],[1,0.5]];portConstraint=eastwest;rotatable=0;whiteSpace=wrap;html=1;rotation=0;fillColor=default;fontColor=#333333;strokeColor=#666666;rounded=0;" parent="NbxyFVA988whH3VRByX9-1" vertex="1">
          <mxGeometry y="210" width="140" height="30" as="geometry" />
        </mxCell>
        <mxCell id="bsFWMnZwvuXCQbmCdaHQ-14" value="UDAIFCTypes" style="text;align=left;verticalAlign=middle;spacingLeft=4;spacingRight=4;overflow=hidden;points=[[0,0.5],[1,0.5]];portConstraint=eastwest;rotatable=0;whiteSpace=wrap;html=1;rotation=0;fillColor=default;fontColor=#333333;strokeColor=#666666;rounded=0;" parent="NbxyFVA988whH3VRByX9-1" vertex="1">
          <mxGeometry y="240" width="140" height="30" as="geometry" />
        </mxCell>
        <mxCell id="bsFWMnZwvuXCQbmCdaHQ-15" value="IFCLayers" style="text;align=left;verticalAlign=middle;spacingLeft=4;spacingRight=4;overflow=hidden;points=[[0,0.5],[1,0.5]];portConstraint=eastwest;rotatable=0;whiteSpace=wrap;html=1;rotation=0;rounded=0;fillColor=default;fontColor=#333333;strokeColor=#666666;" parent="NbxyFVA988whH3VRByX9-1" vertex="1">
          <mxGeometry y="270" width="140" height="30" as="geometry" />
        </mxCell>
        <mxCell id="bsFWMnZwvuXCQbmCdaHQ-31" value="BuildingStorey" style="swimlane;fontStyle=0;childLayout=stackLayout;horizontal=1;startSize=30;horizontalStack=0;resizeParent=1;resizeParentMax=0;resizeLast=0;collapsible=1;marginBottom=0;whiteSpace=wrap;html=1;rotation=0;rounded=0;swimlaneLine=1;" parent="1" vertex="1">
          <mxGeometry x="-410" y="-1070" width="330" height="390" as="geometry">
            <mxRectangle x="320" y="120" width="90" height="30" as="alternateBounds" />
          </mxGeometry>
        </mxCell>
        <mxCell id="bsFWMnZwvuXCQbmCdaHQ-32" value="&lt;ul&gt;&lt;li&gt;Tree structure.&lt;/li&gt;&lt;li&gt;Optional.&lt;/li&gt;&lt;li style=&quot;border-color: var(--border-color);&quot;&gt;&lt;i&gt;(IFC Settings) Storey by path is checked.&lt;/i&gt;&amp;nbsp;&lt;/li&gt;&lt;ul&gt;&lt;li&gt;Have&amp;nbsp;branches with path lengths (&lt;b&gt;D-1).&lt;/b&gt;&lt;/li&gt;&lt;/ul&gt;&lt;ul&gt;&lt;li&gt;Only first value of each branch is used (i.e. first item in branch with path&amp;nbsp;&lt;b style=&quot;background-color: initial;&quot;&gt;{a;b;c}&lt;/b&gt;&lt;span style=&quot;background-color: initial;&quot;&gt; is used for all geometries in branches with path&amp;nbsp;&lt;/span&gt;&lt;b style=&quot;background-color: initial;&quot;&gt;{a;b;c;x}&lt;/b&gt;&lt;span style=&quot;background-color: initial;&quot;&gt;).&lt;/span&gt;&lt;/li&gt;&lt;/ul&gt;&lt;li&gt;&lt;i&gt;(IFC Settings Storey by path is not checked).&lt;/i&gt;&lt;/li&gt;&lt;ul&gt;&lt;li&gt;Have branches with path length (&lt;b&gt;D&lt;/b&gt;).&lt;/li&gt;&lt;li style=&quot;border-color: var(--border-color);&quot;&gt;Each branch can contain multiple items.&lt;/li&gt;&lt;li style=&quot;border-color: var(--border-color);&quot;&gt;(i.e. item &lt;b&gt;I &lt;/b&gt;in branch with path &lt;b&gt;{a;b;c;x}&lt;/b&gt; is paired with Geometry item &lt;b&gt;I &lt;/b&gt;in branch with path&amp;nbsp;&lt;b style=&quot;border-color: var(--border-color);&quot;&gt;{a;b;c;x}&lt;/b&gt;).&lt;/li&gt;&lt;li style=&quot;border-color: var(--border-color);&quot;&gt;If number of items in branch with path &lt;b&gt;P &lt;/b&gt;of Geometry is greater than number of items in branch with path &lt;b&gt;P &lt;/b&gt;of&amp;nbsp;BuildingStorey, last BuildingStorey item in path &lt;b&gt;P &lt;/b&gt;is used for all remaining items in Geometry branch with path &lt;b&gt;P.&lt;/b&gt;&lt;/li&gt;&lt;/ul&gt;&lt;li&gt;If geometry input item is not paired with the BuildingStorey input item, no IfcBuildingStorey is created and geometry belogs to IfcBuilding iteself.&lt;/li&gt;&lt;/ul&gt;" style="text;align=left;verticalAlign=middle;spacingLeft=4;spacingRight=4;overflow=hidden;points=[[0,0.5],[1,0.5]];portConstraint=eastwest;rotatable=0;whiteSpace=wrap;html=1;rotation=0;rounded=0;glass=0;fillColor=default;fontColor=#333333;strokeColor=none;" parent="bsFWMnZwvuXCQbmCdaHQ-31" vertex="1">
          <mxGeometry y="30" width="330" height="360" as="geometry" />
        </mxCell>
        <mxCell id="bsFWMnZwvuXCQbmCdaHQ-42" value="Geometry input (ruling parameter)" style="swimlane;fontStyle=0;childLayout=stackLayout;horizontal=1;startSize=30;horizontalStack=0;resizeParent=1;resizeParentMax=0;resizeLast=0;collapsible=1;marginBottom=0;whiteSpace=wrap;html=1;rotation=0;swimlaneBody=1;rounded=0;swimlaneLine=1;" parent="1" vertex="1">
          <mxGeometry x="-810" y="-1070" width="340" height="130" as="geometry">
            <mxRectangle x="320" y="120" width="90" height="30" as="alternateBounds" />
          </mxGeometry>
        </mxCell>
        <mxCell id="bsFWMnZwvuXCQbmCdaHQ-43" value="&lt;ul&gt;&lt;li&gt;Tree structure.&lt;/li&gt;&lt;li&gt;&lt;span style=&quot;background-color: initial;&quot;&gt;Path indices matter.&lt;/span&gt;&lt;br&gt;&lt;/li&gt;&lt;li&gt;Have branches with path lengths&amp;nbsp;&lt;b&gt;D.&lt;/b&gt;&lt;/li&gt;&lt;li style=&quot;&quot;&gt;Each branch can contain multiple items &lt;b&gt;I.&lt;/b&gt;&lt;/li&gt;&lt;/ul&gt;" style="text;align=left;verticalAlign=middle;spacingLeft=4;spacingRight=4;overflow=hidden;points=[[0,0.5],[1,0.5]];portConstraint=eastwest;rotatable=0;whiteSpace=wrap;html=1;rotation=0;fillColor=default;fontColor=#333333;strokeColor=none;rounded=0;" parent="bsFWMnZwvuXCQbmCdaHQ-42" vertex="1">
          <mxGeometry y="30" width="340" height="100" as="geometry" />
        </mxCell>
        <mxCell id="bsFWMnZwvuXCQbmCdaHQ-46" value="Colours" style="swimlane;fontStyle=0;childLayout=stackLayout;horizontal=1;startSize=30;horizontalStack=0;resizeParent=1;resizeParentMax=0;resizeLast=0;collapsible=1;marginBottom=0;whiteSpace=wrap;html=1;rotation=0;rounded=0;" parent="1" vertex="1">
          <mxGeometry x="-410" y="-630" width="330" height="270" as="geometry">
            <mxRectangle x="320" y="120" width="90" height="30" as="alternateBounds" />
          </mxGeometry>
        </mxCell>
        <mxCell id="bsFWMnZwvuXCQbmCdaHQ-47" value="&lt;ul&gt;&lt;li&gt;Tree structure.&lt;/li&gt;&lt;li&gt;Optional.&lt;/li&gt;&lt;li&gt;If input is present.&amp;nbsp;&lt;/li&gt;&lt;ul&gt;&lt;li&gt;Have branches with path length &lt;b style=&quot;background-color: initial;&quot;&gt;D&lt;/b&gt;&lt;span style=&quot;background-color: initial;&quot;&gt;.&lt;/span&gt;&lt;/li&gt;&lt;li style=&quot;border-color: var(--border-color);&quot;&gt;Each branch can contain multiple items (i.e. item &lt;b style=&quot;background-color: initial;&quot;&gt;I &lt;/b&gt;&lt;span style=&quot;background-color: initial;&quot;&gt;in branch with path &lt;b&gt;{a;b;c;d}&lt;/b&gt; is paired with Geometry item &lt;/span&gt;&lt;b style=&quot;background-color: initial;&quot;&gt;I &lt;/b&gt;&lt;span style=&quot;background-color: initial;&quot;&gt;in branch with path&amp;nbsp;&lt;b style=&quot;border-color: var(--border-color);&quot;&gt;{a;b;c;d}&lt;/b&gt;).&lt;/span&gt;&lt;/li&gt;&lt;li style=&quot;border-color: var(--border-color);&quot;&gt;If number of items in branch with path &lt;b&gt;P &lt;/b&gt;of Geometry is greater than number of items in branch with path &lt;b&gt;P &lt;/b&gt;of&amp;nbsp;Colours, last Colours item in path &lt;b&gt;P &lt;/b&gt;is used for all remaining items in Geometry branch with path &lt;b&gt;P.&lt;/b&gt;&lt;/li&gt;&lt;/ul&gt;&lt;li&gt;If geometry input item is not paired with the Colours input item, default (transparent) color is used.&lt;/li&gt;&lt;/ul&gt;" style="text;align=left;verticalAlign=middle;spacingLeft=4;spacingRight=4;overflow=hidden;points=[[0,0.5],[1,0.5]];portConstraint=eastwest;rotatable=0;whiteSpace=wrap;html=1;rotation=0;fillColor=default;fontColor=#333333;strokeColor=none;rounded=0;" parent="bsFWMnZwvuXCQbmCdaHQ-46" vertex="1">
          <mxGeometry y="30" width="330" height="240" as="geometry" />
        </mxCell>
        <mxCell id="bsFWMnZwvuXCQbmCdaHQ-49" value="IFCLayers" style="swimlane;fontStyle=0;childLayout=stackLayout;horizontal=1;startSize=30;horizontalStack=0;resizeParent=1;resizeParentMax=0;resizeLast=0;collapsible=1;marginBottom=0;whiteSpace=wrap;html=1;rotation=0;rounded=0;" parent="1" vertex="1">
          <mxGeometry x="-810" y="50" width="330" height="310" as="geometry">
            <mxRectangle x="320" y="120" width="90" height="30" as="alternateBounds" />
          </mxGeometry>
        </mxCell>
        <mxCell id="bsFWMnZwvuXCQbmCdaHQ-50" value="&lt;ul&gt;&lt;li&gt;Tree structure.&lt;/li&gt;&lt;li&gt;Optional.&lt;/li&gt;&lt;li&gt;If input is present.&amp;nbsp;&lt;/li&gt;&lt;ul&gt;&lt;li&gt;Have branches with path length &lt;b style=&quot;background-color: initial;&quot;&gt;D&lt;/b&gt;&lt;span style=&quot;background-color: initial;&quot;&gt;.&lt;/span&gt;&lt;/li&gt;&lt;li style=&quot;border-color: var(--border-color);&quot;&gt;Each branch can contain multiple items (i.e. item &lt;b style=&quot;background-color: initial;&quot;&gt;I &lt;/b&gt;&lt;span style=&quot;background-color: initial;&quot;&gt;in branch with path&amp;nbsp;&lt;/span&gt;&lt;b style=&quot;background-color: initial; border-color: var(--border-color);&quot;&gt;{a;b;c;x}&lt;/b&gt;&lt;span style=&quot;background-color: initial;&quot;&gt;&amp;nbsp;is paired with Geometry item &lt;/span&gt;&lt;b style=&quot;background-color: initial;&quot;&gt;I &lt;/b&gt;&lt;span style=&quot;background-color: initial;&quot;&gt;in branch with path&amp;nbsp;&lt;b style=&quot;border-color: var(--border-color); background-color: initial;&quot;&gt;{a;b;c;x}&lt;/b&gt;.&lt;/span&gt;&lt;/li&gt;&lt;li style=&quot;border-color: var(--border-color);&quot;&gt;If number of items in branch with path &lt;b&gt;P &lt;/b&gt;of Geometry is greater than number of items in branch with path &lt;b&gt;P &lt;/b&gt;of&amp;nbsp;IFCLayers, last IFCLayersitem in path &lt;b&gt;P &lt;/b&gt;is used for all remaining items in Geometry branch with path &lt;b&gt;P.&lt;/b&gt;&lt;/li&gt;&lt;/ul&gt;&lt;li&gt;If geometry input item is not paired with the IFCLayers no layer is used.&lt;/li&gt;&lt;/ul&gt;" style="text;align=left;verticalAlign=middle;spacingLeft=4;spacingRight=4;overflow=hidden;points=[[0,0.5],[1,0.5]];portConstraint=eastwest;rotatable=0;whiteSpace=wrap;html=1;rotation=0;fillColor=default;fontColor=#333333;strokeColor=none;rounded=0;" parent="bsFWMnZwvuXCQbmCdaHQ-49" vertex="1">
          <mxGeometry y="30" width="330" height="280" as="geometry" />
        </mxCell>
        <mxCell id="bsFWMnZwvuXCQbmCdaHQ-53" style="edgeStyle=none;rounded=0;orthogonalLoop=1;jettySize=auto;html=1;entryX=0;entryY=0.5;entryDx=0;entryDy=0;exitX=1;exitY=0.5;exitDx=0;exitDy=0;" parent="1" source="bsFWMnZwvuXCQbmCdaHQ-43" target="NbxyFVA988whH3VRByX9-3" edge="1">
          <mxGeometry relative="1" as="geometry">
            <Array as="points">
              <mxPoint x="-440" y="-990" />
              <mxPoint x="-440" y="-670" />
              <mxPoint x="-230" y="-670" />
              <mxPoint x="-20" y="-670" />
              <mxPoint x="-20" y="-505" />
            </Array>
          </mxGeometry>
        </mxCell>
        <mxCell id="bsFWMnZwvuXCQbmCdaHQ-54" style="edgeStyle=none;rounded=0;orthogonalLoop=1;jettySize=auto;html=1;entryX=0;entryY=0.5;entryDx=0;entryDy=0;exitX=1;exitY=0.5;exitDx=0;exitDy=0;" parent="1" source="bsFWMnZwvuXCQbmCdaHQ-32" target="NbxyFVA988whH3VRByX9-2" edge="1">
          <mxGeometry relative="1" as="geometry">
            <mxPoint x="130" y="-634" as="sourcePoint" />
            <Array as="points">
              <mxPoint x="100" y="-860" />
              <mxPoint x="100" y="-535" />
            </Array>
          </mxGeometry>
        </mxCell>
        <mxCell id="bsFWMnZwvuXCQbmCdaHQ-55" style="edgeStyle=none;rounded=0;orthogonalLoop=1;jettySize=auto;html=1;entryX=0;entryY=0.5;entryDx=0;entryDy=0;exitX=1;exitY=0.521;exitDx=0;exitDy=0;exitPerimeter=0;" parent="1" source="bsFWMnZwvuXCQbmCdaHQ-96" target="bsFWMnZwvuXCQbmCdaHQ-5" edge="1">
          <mxGeometry relative="1" as="geometry">
            <Array as="points">
              <mxPoint x="120" y="-475" />
            </Array>
          </mxGeometry>
        </mxCell>
        <mxCell id="bsFWMnZwvuXCQbmCdaHQ-56" style="edgeStyle=none;rounded=0;orthogonalLoop=1;jettySize=auto;html=1;entryX=0;entryY=0.5;entryDx=0;entryDy=0;exitX=0.995;exitY=0.789;exitDx=0;exitDy=0;exitPerimeter=0;" parent="1" source="bsFWMnZwvuXCQbmCdaHQ-50" target="bsFWMnZwvuXCQbmCdaHQ-15" edge="1">
          <mxGeometry relative="1" as="geometry">
            <mxPoint x="180" y="-270" as="targetPoint" />
            <Array as="points">
              <mxPoint x="230" y="300" />
              <mxPoint x="230" y="-295" />
            </Array>
          </mxGeometry>
        </mxCell>
        <mxCell id="bsFWMnZwvuXCQbmCdaHQ-57" value="IFCElementTypes" style="swimlane;fontStyle=0;childLayout=stackLayout;horizontal=1;startSize=30;horizontalStack=0;resizeParent=1;resizeParentMax=0;resizeLast=0;collapsible=1;marginBottom=0;whiteSpace=wrap;html=1;rotation=0;rounded=0;" parent="1" vertex="1">
          <mxGeometry x="-810" y="-910" width="330" height="310" as="geometry">
            <mxRectangle x="320" y="120" width="90" height="30" as="alternateBounds" />
          </mxGeometry>
        </mxCell>
        <mxCell id="bsFWMnZwvuXCQbmCdaHQ-58" value="&lt;ul&gt;&lt;li&gt;Tree structure.&lt;/li&gt;&lt;li&gt;Optional.&lt;/li&gt;&lt;li&gt;If input is present.&amp;nbsp;&lt;/li&gt;&lt;ul&gt;&lt;li&gt;Have branches with path length &lt;b style=&quot;background-color: initial;&quot;&gt;D&lt;/b&gt;&lt;span style=&quot;background-color: initial;&quot;&gt;.&lt;/span&gt;&lt;/li&gt;&lt;li style=&quot;border-color: var(--border-color);&quot;&gt;Each branch can contain multiple items (i.e. item &lt;b style=&quot;background-color: initial;&quot;&gt;I &lt;/b&gt;&lt;span style=&quot;background-color: initial;&quot;&gt;in branch with path&amp;nbsp;&lt;b style=&quot;border-color: var(--border-color);&quot;&gt;{a;b;c;x}&lt;/b&gt;&amp;nbsp;is paired with Geometry item &lt;/span&gt;&lt;b style=&quot;background-color: initial;&quot;&gt;I &lt;/b&gt;&lt;span style=&quot;background-color: initial;&quot;&gt;in branch with path&amp;nbsp;&lt;b style=&quot;border-color: var(--border-color);&quot;&gt;{a;b;c;x}&lt;/b&gt;).&lt;/span&gt;&lt;/li&gt;&lt;li style=&quot;border-color: var(--border-color);&quot;&gt;If number of items in branch with path &lt;b&gt;P &lt;/b&gt;of Geometry is greater than number of items in branch with path &lt;b&gt;P &lt;/b&gt;of&amp;nbsp;IFCElementTypes, last&amp;nbsp;IFCElementTypes item in path &lt;b&gt;P &lt;/b&gt;is used for all remaining items in Geometry branch with path &lt;b&gt;P.&lt;/b&gt;&lt;/li&gt;&lt;/ul&gt;&lt;li&gt;If geometry input item is not paired with the IFCElementTypes&amp;nbsp;input item, default (set in settings) IfcElementType is used.&lt;/li&gt;&lt;/ul&gt;" style="text;align=left;verticalAlign=middle;spacingLeft=4;spacingRight=4;overflow=hidden;points=[[0,0.5],[1,0.5]];portConstraint=eastwest;rotatable=0;whiteSpace=wrap;html=1;rotation=0;fillColor=default;fontColor=#333333;strokeColor=none;rounded=0;" parent="bsFWMnZwvuXCQbmCdaHQ-57" vertex="1">
          <mxGeometry y="30" width="330" height="280" as="geometry" />
        </mxCell>
        <mxCell id="bsFWMnZwvuXCQbmCdaHQ-62" value="Optional" style="text;html=1;strokeColor=none;fillColor=none;align=center;verticalAlign=middle;whiteSpace=wrap;rounded=0;rotation=0;" parent="1" vertex="1">
          <mxGeometry x="230" y="-560" width="60" height="30" as="geometry" />
        </mxCell>
        <mxCell id="bsFWMnZwvuXCQbmCdaHQ-66" value="Mandatory; Ruling input" style="text;html=1;strokeColor=none;fillColor=none;align=center;verticalAlign=middle;whiteSpace=wrap;rounded=0;rotation=0;" parent="1" vertex="1">
          <mxGeometry x="110" y="-530" width="190" height="30" as="geometry" />
        </mxCell>
        <mxCell id="bsFWMnZwvuXCQbmCdaHQ-67" value="Optional" style="text;html=1;strokeColor=none;fillColor=none;align=center;verticalAlign=middle;whiteSpace=wrap;rounded=0;rotation=0;" parent="1" vertex="1">
          <mxGeometry x="230" y="-500" width="60" height="30" as="geometry" />
        </mxCell>
        <mxCell id="bsFWMnZwvuXCQbmCdaHQ-69" style="edgeStyle=none;rounded=0;orthogonalLoop=1;jettySize=auto;html=1;entryX=0;entryY=0.5;entryDx=0;entryDy=0;exitX=1.006;exitY=0.816;exitDx=0;exitDy=0;exitPerimeter=0;" parent="1" source="bsFWMnZwvuXCQbmCdaHQ-58" target="bsFWMnZwvuXCQbmCdaHQ-6" edge="1">
          <mxGeometry relative="1" as="geometry">
            <Array as="points">
              <mxPoint x="-50" y="-652" />
              <mxPoint x="-50" y="-445" />
            </Array>
          </mxGeometry>
        </mxCell>
        <mxCell id="bsFWMnZwvuXCQbmCdaHQ-70" value="Optional" style="text;html=1;strokeColor=none;fillColor=none;align=center;verticalAlign=middle;whiteSpace=wrap;rounded=0;rotation=0;" parent="1" vertex="1">
          <mxGeometry x="230" y="-470" width="60" height="30" as="geometry" />
        </mxCell>
        <mxCell id="bsFWMnZwvuXCQbmCdaHQ-73" value="UDAKeys (ruling parameter for UDAValues,UDAPsets&lt;br&gt;and UDAIFCTypes&amp;nbsp;inputs)" style="swimlane;fontStyle=0;childLayout=stackLayout;horizontal=1;startSize=40;horizontalStack=0;resizeParent=1;resizeParentMax=0;resizeLast=0;collapsible=1;marginBottom=0;whiteSpace=wrap;html=1;rotation=0;rounded=0;" parent="1" vertex="1">
          <mxGeometry x="-410" y="-290" width="330" height="210" as="geometry">
            <mxRectangle x="555" y="460" width="90" height="30" as="alternateBounds" />
          </mxGeometry>
        </mxCell>
        <mxCell id="bsFWMnZwvuXCQbmCdaHQ-74" value="&lt;ul&gt;&lt;li&gt;Tree structure.&lt;/li&gt;&lt;li&gt;Optional.&lt;/li&gt;&lt;li&gt;If input is present.&amp;nbsp;&lt;/li&gt;&lt;ul&gt;&lt;li&gt;Have branches with path length (&lt;b style=&quot;background-color: initial;&quot;&gt;D+1&lt;/b&gt;&lt;span style=&quot;background-color: initial;&quot;&gt;).&lt;/span&gt;&lt;/li&gt;&lt;li style=&quot;border-color: var(--border-color);&quot;&gt;Each branch can contain multiple items (i.e. all items&amp;nbsp;&lt;b style=&quot;background-color: initial;&quot;&gt;I &lt;/b&gt;&lt;span style=&quot;background-color: initial;&quot;&gt;in branch with path&amp;nbsp;&lt;/span&gt;&lt;span style=&quot;background-color: initial;&quot;&gt;&lt;b style=&quot;border-color: var(--border-color); background-color: initial;&quot;&gt;{a;b;c;0}&lt;/b&gt;&amp;nbsp;are paired with Geometry item &lt;/span&gt;&lt;b style=&quot;background-color: initial;&quot;&gt;X&amp;nbsp;&lt;/b&gt;&lt;span style=&quot;background-color: initial;&quot;&gt;in branch with path with&amp;nbsp;&lt;b style=&quot;border-color: var(--border-color); background-color: initial;&quot;&gt;{a;b;c}&lt;/b&gt;).&lt;/span&gt;&lt;/li&gt;&lt;/ul&gt;&lt;li&gt;If geometry input item is not paired with the UDAKeys input item, no UDA is defined in IFC file.&lt;/li&gt;&lt;/ul&gt;" style="text;align=left;verticalAlign=middle;spacingLeft=4;spacingRight=4;overflow=hidden;points=[[0,0.5],[1,0.5]];portConstraint=eastwest;rotatable=0;whiteSpace=wrap;html=1;rotation=0;fillColor=default;fontColor=#333333;strokeColor=none;rounded=0;" parent="bsFWMnZwvuXCQbmCdaHQ-73" vertex="1">
          <mxGeometry y="40" width="330" height="170" as="geometry" />
        </mxCell>
        <mxCell id="bsFWMnZwvuXCQbmCdaHQ-75" style="edgeStyle=none;rounded=0;orthogonalLoop=1;jettySize=auto;html=1;entryX=0;entryY=0.5;entryDx=0;entryDy=0;" parent="1" source="bsFWMnZwvuXCQbmCdaHQ-74" target="bsFWMnZwvuXCQbmCdaHQ-11" edge="1">
          <mxGeometry relative="1" as="geometry">
            <Array as="points">
              <mxPoint x="150" y="-165" />
              <mxPoint x="150" y="-415" />
            </Array>
          </mxGeometry>
        </mxCell>
        <mxCell id="bsFWMnZwvuXCQbmCdaHQ-76" value="Optional; Ruling input for UDA" style="text;html=1;strokeColor=none;fillColor=none;align=center;verticalAlign=middle;whiteSpace=wrap;rounded=0;rotation=0;" parent="1" vertex="1">
          <mxGeometry x="120" y="-440" width="190" height="30" as="geometry" />
        </mxCell>
        <mxCell id="bsFWMnZwvuXCQbmCdaHQ-77" value="UDAValues" style="swimlane;fontStyle=0;childLayout=stackLayout;horizontal=1;startSize=30;horizontalStack=0;resizeParent=1;resizeParentMax=0;resizeLast=0;collapsible=1;marginBottom=0;whiteSpace=wrap;html=1;rotation=0;rounded=0;" parent="1" vertex="1">
          <mxGeometry x="-810" y="-570" width="330" height="240" as="geometry">
            <mxRectangle x="555" y="460" width="90" height="30" as="alternateBounds" />
          </mxGeometry>
        </mxCell>
        <mxCell id="bsFWMnZwvuXCQbmCdaHQ-78" value="&lt;ul&gt;&lt;li&gt;Tree structure.&lt;/li&gt;&lt;li&gt;Optional.&lt;/li&gt;&lt;li&gt;If input is present.&amp;nbsp;&lt;/li&gt;&lt;ul&gt;&lt;li&gt;Have branches with path length (&lt;b style=&quot;background-color: initial;&quot;&gt;D+1&lt;/b&gt;&lt;span style=&quot;background-color: initial;&quot;&gt;).&lt;/span&gt;&lt;/li&gt;&lt;li style=&quot;border-color: var(--border-color);&quot;&gt;Each branch can contain multiple items (i.e. item&amp;nbsp;&lt;b style=&quot;background-color: initial;&quot;&gt;I &lt;/b&gt;&lt;span style=&quot;background-color: initial;&quot;&gt;in branch with path&amp;nbsp;&lt;/span&gt;&lt;b style=&quot;background-color: initial; border-color: var(--border-color);&quot;&gt;{a;b;c;x}&lt;/b&gt;&lt;span style=&quot;background-color: initial;&quot;&gt;&amp;nbsp;is paired with&amp;nbsp; UDAKeys item &lt;/span&gt;&lt;b style=&quot;background-color: initial;&quot;&gt;I&amp;nbsp;&lt;/b&gt;&lt;span style=&quot;background-color: initial;&quot;&gt;in branch with path&amp;nbsp;&lt;/span&gt;&lt;b style=&quot;background-color: initial; border-color: var(--border-color);&quot;&gt;{a;b;c;x}&lt;/b&gt;&lt;span style=&quot;background-color: initial;&quot;&gt;).&lt;/span&gt;&lt;/li&gt;&lt;/ul&gt;&lt;li&gt;If UDAValues input item is not paired with the UDAKeys input item, item is ignored.&lt;/li&gt;&lt;li&gt;If UDAValues input item is missing for UDAKeys value &lt;i&gt;&quot;Value_not_defined&quot; &lt;/i&gt;is used.&lt;/li&gt;&lt;/ul&gt;" style="text;align=left;verticalAlign=middle;spacingLeft=4;spacingRight=4;overflow=hidden;points=[[0,0.5],[1,0.5]];portConstraint=eastwest;rotatable=0;whiteSpace=wrap;html=1;rotation=0;fillColor=default;fontColor=#333333;strokeColor=none;rounded=0;" parent="bsFWMnZwvuXCQbmCdaHQ-77" vertex="1">
          <mxGeometry y="30" width="330" height="210" as="geometry" />
        </mxCell>
        <mxCell id="bsFWMnZwvuXCQbmCdaHQ-79" style="edgeStyle=none;rounded=0;orthogonalLoop=1;jettySize=auto;html=1;entryX=0;entryY=0.5;entryDx=0;entryDy=0;exitX=1;exitY=0.5;exitDx=0;exitDy=0;" parent="1" source="bsFWMnZwvuXCQbmCdaHQ-91" target="bsFWMnZwvuXCQbmCdaHQ-12" edge="1">
          <mxGeometry relative="1" as="geometry">
            <mxPoint x="-480" y="-410" as="sourcePoint" />
            <Array as="points">
              <mxPoint x="160" y="-330" />
              <mxPoint x="160" y="-385" />
            </Array>
          </mxGeometry>
        </mxCell>
        <mxCell id="bsFWMnZwvuXCQbmCdaHQ-80" value="Optional" style="text;html=1;strokeColor=none;fillColor=none;align=center;verticalAlign=middle;whiteSpace=wrap;rounded=0;rotation=0;" parent="1" vertex="1">
          <mxGeometry x="230" y="-410" width="60" height="30" as="geometry" />
        </mxCell>
        <mxCell id="bsFWMnZwvuXCQbmCdaHQ-81" value="UDAPSets" style="swimlane;fontStyle=0;childLayout=stackLayout;horizontal=1;startSize=30;horizontalStack=0;resizeParent=1;resizeParentMax=0;resizeLast=0;collapsible=1;marginBottom=0;whiteSpace=wrap;html=1;rotation=0;rounded=0;" parent="1" vertex="1">
          <mxGeometry x="-400" y="40" width="330" height="240" as="geometry">
            <mxRectangle x="555" y="460" width="90" height="30" as="alternateBounds" />
          </mxGeometry>
        </mxCell>
        <mxCell id="bsFWMnZwvuXCQbmCdaHQ-82" value="&lt;ul&gt;&lt;li&gt;Tree structure.&lt;/li&gt;&lt;li&gt;Optional.&lt;/li&gt;&lt;li&gt;If input is present.&amp;nbsp;&lt;/li&gt;&lt;ul&gt;&lt;li&gt;Have branches with path length (&lt;b style=&quot;background-color: initial;&quot;&gt;D+1&lt;/b&gt;&lt;span style=&quot;background-color: initial;&quot;&gt;).&lt;/span&gt;&lt;/li&gt;&lt;li style=&quot;border-color: var(--border-color);&quot;&gt;Each branch can contain multiple items (i.e. item&amp;nbsp;&lt;b style=&quot;background-color: initial;&quot;&gt;I &lt;/b&gt;&lt;span style=&quot;background-color: initial;&quot;&gt;in branch with path&amp;nbsp;&lt;b style=&quot;border-color: var(--border-color); background-color: initial;&quot;&gt;{a;b;c;x}&lt;/b&gt;&lt;/span&gt;&lt;span style=&quot;background-color: initial;&quot;&gt;&amp;nbsp;is paired with&amp;nbsp; UDAKeys item &lt;/span&gt;&lt;b style=&quot;background-color: initial;&quot;&gt;I&amp;nbsp;&lt;/b&gt;&lt;span style=&quot;background-color: initial;&quot;&gt;in branch with path&amp;nbsp;&lt;b style=&quot;border-color: var(--border-color); background-color: initial;&quot;&gt;{a;b;c;x}&lt;/b&gt;).&lt;/span&gt;&lt;/li&gt;&lt;/ul&gt;&lt;li&gt;If&amp;nbsp;UDAPSets input item is not paired with the UDAKeys input item, item is ignored.&lt;/li&gt;&lt;li&gt;If UDAPSets input item is missing for UDAKeys value &lt;i&gt;&quot;Not_defined&quot; &lt;/i&gt;is used.&lt;/li&gt;&lt;/ul&gt;" style="text;align=left;verticalAlign=middle;spacingLeft=4;spacingRight=4;overflow=hidden;points=[[0,0.5],[1,0.5]];portConstraint=eastwest;rotatable=0;whiteSpace=wrap;html=1;rotation=0;fillColor=default;fontColor=#333333;strokeColor=none;" parent="bsFWMnZwvuXCQbmCdaHQ-81" vertex="1">
          <mxGeometry y="30" width="330" height="210" as="geometry" />
        </mxCell>
        <mxCell id="bsFWMnZwvuXCQbmCdaHQ-83" style="edgeStyle=none;rounded=0;orthogonalLoop=1;jettySize=auto;html=1;entryX=0;entryY=0.5;entryDx=0;entryDy=0;" parent="1" source="bsFWMnZwvuXCQbmCdaHQ-82" target="bsFWMnZwvuXCQbmCdaHQ-13" edge="1">
          <mxGeometry relative="1" as="geometry">
            <Array as="points">
              <mxPoint x="190" y="175" />
              <mxPoint x="190" y="-355" />
            </Array>
          </mxGeometry>
        </mxCell>
        <mxCell id="bsFWMnZwvuXCQbmCdaHQ-84" value="Optional" style="text;html=1;strokeColor=none;fillColor=none;align=center;verticalAlign=middle;whiteSpace=wrap;rounded=0;rotation=0;" parent="1" vertex="1">
          <mxGeometry x="230" y="-380" width="60" height="30" as="geometry" />
        </mxCell>
        <mxCell id="bsFWMnZwvuXCQbmCdaHQ-85" value="UDAIFCTypes" style="swimlane;fontStyle=0;childLayout=stackLayout;horizontal=1;startSize=30;horizontalStack=0;resizeParent=1;resizeParentMax=0;resizeLast=0;collapsible=1;marginBottom=0;whiteSpace=wrap;html=1;rotation=0;rounded=0;" parent="1" vertex="1">
          <mxGeometry x="-810" y="-290" width="330" height="310" as="geometry">
            <mxRectangle x="555" y="460" width="90" height="30" as="alternateBounds" />
          </mxGeometry>
        </mxCell>
        <mxCell id="bsFWMnZwvuXCQbmCdaHQ-86" value="&lt;ul&gt;&lt;li&gt;Tree structure.&lt;/li&gt;&lt;li&gt;Optional.&lt;/li&gt;&lt;li&gt;If input is present.&amp;nbsp;&lt;/li&gt;&lt;ul&gt;&lt;li&gt;Have branches with path length (&lt;b style=&quot;background-color: initial;&quot;&gt;D+1&lt;/b&gt;&lt;span style=&quot;background-color: initial;&quot;&gt;).&lt;/span&gt;&lt;/li&gt;&lt;li style=&quot;border-color: var(--border-color);&quot;&gt;Each branch can contain multiple items (i.e. item&amp;nbsp;&lt;b style=&quot;border-color: var(--border-color); background-color: initial;&quot;&gt;I&amp;nbsp;&lt;/b&gt;in branch with path&amp;nbsp;&lt;b style=&quot;border-color: var(--border-color); background-color: initial;&quot;&gt;{a;b;c;x}&lt;/b&gt;&lt;span style=&quot;border-color: var(--border-color); background-color: initial;&quot;&gt;&amp;nbsp;is paired with&amp;nbsp; UDAKeys item&amp;nbsp;&lt;/span&gt;&lt;b style=&quot;border-color: var(--border-color); background-color: initial;&quot;&gt;I&amp;nbsp;&lt;/b&gt;&lt;span style=&quot;border-color: var(--border-color); background-color: initial;&quot;&gt;in branch with path&amp;nbsp;&lt;/span&gt;&lt;b style=&quot;border-color: var(--border-color); background-color: initial;&quot;&gt;{a;b;c;x}&lt;/b&gt;&lt;span style=&quot;border-color: var(--border-color); background-color: initial;&quot;&gt;).&lt;/span&gt;&lt;/li&gt;&lt;/ul&gt;&lt;li&gt;If&amp;nbsp;UDAIFCTypes input item is not paired with the UDAKeys input item, item is ignored.&lt;/li&gt;&lt;li&gt;If&amp;nbsp;UDAIFCTypes input item is missing for UDAKeys input item default value set in settings is used.&lt;/li&gt;&lt;li&gt;If value of UDAKeys item paired with UDAIFCTypes item cannot be properly converted IfcLabel type is used and warning message is shown. (i.e. string cannot be converted to real number for IfcReal type.)&lt;/li&gt;&lt;/ul&gt;" style="text;align=left;verticalAlign=middle;spacingLeft=4;spacingRight=4;overflow=hidden;points=[[0,0.5],[1,0.5]];portConstraint=eastwest;rotatable=0;whiteSpace=wrap;html=1;rotation=0;fillColor=default;fontColor=#333333;strokeColor=none;rounded=0;" parent="bsFWMnZwvuXCQbmCdaHQ-85" vertex="1">
          <mxGeometry y="30" width="330" height="280" as="geometry" />
        </mxCell>
        <mxCell id="bsFWMnZwvuXCQbmCdaHQ-87" style="edgeStyle=none;rounded=0;orthogonalLoop=1;jettySize=auto;html=1;entryX=0;entryY=0.5;entryDx=0;entryDy=0;exitX=1;exitY=0.5;exitDx=0;exitDy=0;" parent="1" source="bsFWMnZwvuXCQbmCdaHQ-94" target="bsFWMnZwvuXCQbmCdaHQ-14" edge="1">
          <mxGeometry relative="1" as="geometry">
            <mxPoint x="-430" y="350" as="sourcePoint" />
            <mxPoint x="300" y="-324.9999999999998" as="targetPoint" />
            <Array as="points">
              <mxPoint x="210" y="-40" />
              <mxPoint x="210" y="-325" />
            </Array>
          </mxGeometry>
        </mxCell>
        <mxCell id="bsFWMnZwvuXCQbmCdaHQ-88" value="Optional" style="text;html=1;strokeColor=none;fillColor=none;align=center;verticalAlign=middle;whiteSpace=wrap;rounded=0;rotation=0;" parent="1" vertex="1">
          <mxGeometry x="230" y="-350" width="60" height="30" as="geometry" />
        </mxCell>
        <mxCell id="bsFWMnZwvuXCQbmCdaHQ-89" value="Optional" style="text;html=1;strokeColor=none;fillColor=none;align=center;verticalAlign=middle;whiteSpace=wrap;rounded=0;rotation=0;" parent="1" vertex="1">
          <mxGeometry x="230" y="-320" width="60" height="30" as="geometry" />
        </mxCell>
        <mxCell id="bsFWMnZwvuXCQbmCdaHQ-92" value="" style="edgeStyle=none;rounded=0;orthogonalLoop=1;jettySize=auto;html=1;entryX=0.019;entryY=0.356;entryDx=0;entryDy=0;entryPerimeter=0;" parent="1" target="bsFWMnZwvuXCQbmCdaHQ-91" edge="1">
          <mxGeometry relative="1" as="geometry">
            <mxPoint x="-480" y="-410" as="sourcePoint" />
            <mxPoint x="310" y="-385" as="targetPoint" />
            <Array as="points">
              <mxPoint x="-440" y="-410" />
              <mxPoint x="-440" y="-330" />
            </Array>
          </mxGeometry>
        </mxCell>
        <mxCell id="bsFWMnZwvuXCQbmCdaHQ-91" value="&amp;nbsp;" style="text;html=1;strokeColor=none;fillColor=none;align=center;verticalAlign=middle;whiteSpace=wrap;rounded=0;" parent="1" vertex="1">
          <mxGeometry x="140" y="-340" width="20" height="30" as="geometry" />
        </mxCell>
        <mxCell id="bsFWMnZwvuXCQbmCdaHQ-95" value="" style="edgeStyle=none;rounded=0;orthogonalLoop=1;jettySize=auto;html=1;entryX=0;entryY=0.5;entryDx=0;entryDy=0;exitX=1.002;exitY=0.776;exitDx=0;exitDy=0;exitPerimeter=0;" parent="1" source="bsFWMnZwvuXCQbmCdaHQ-86" target="bsFWMnZwvuXCQbmCdaHQ-94" edge="1">
          <mxGeometry relative="1" as="geometry">
            <mxPoint x="-479" y="-43" as="sourcePoint" />
            <mxPoint x="310" y="-325" as="targetPoint" />
            <Array as="points" />
          </mxGeometry>
        </mxCell>
        <mxCell id="bsFWMnZwvuXCQbmCdaHQ-94" value="&amp;nbsp;" style="text;html=1;strokeColor=none;fillColor=none;align=center;verticalAlign=middle;whiteSpace=wrap;rounded=0;" parent="1" vertex="1">
          <mxGeometry x="180" y="-55" width="20" height="30" as="geometry" />
        </mxCell>
        <mxCell id="bsFWMnZwvuXCQbmCdaHQ-97" value="" style="edgeStyle=none;rounded=0;orthogonalLoop=1;jettySize=auto;html=1;entryX=0;entryY=0.5;entryDx=0;entryDy=0;exitX=1;exitY=0.521;exitDx=0;exitDy=0;exitPerimeter=0;" parent="1" source="bsFWMnZwvuXCQbmCdaHQ-47" target="bsFWMnZwvuXCQbmCdaHQ-96" edge="1">
          <mxGeometry relative="1" as="geometry">
            <mxPoint x="-80" y="-475" as="sourcePoint" />
            <mxPoint x="310" y="-475" as="targetPoint" />
            <Array as="points" />
          </mxGeometry>
        </mxCell>
        <mxCell id="bsFWMnZwvuXCQbmCdaHQ-96" value="&amp;nbsp;" style="text;html=1;align=center;verticalAlign=middle;whiteSpace=wrap;rounded=0;" parent="1" vertex="1">
          <mxGeometry x="-60" y="-490" width="20" height="30" as="geometry" />
        </mxCell>
      </root>
    </mxGraphModel>
  </diagram>
</mxfile>
